# xmcd CD database file
#
# Track frame offsets:
#	150
#	19398
#	33510
#
# Disc length: 700 seconds
#
# Revision: 0
# Processed by: cddbd v1.5.1PL0 Copyright (c) Steve Scherf et al.
# Submitted via: CDex 1.50beta8
#
DISCID=1f02ba03
DTITLE=JAM Project - VOYAGER
DYEAR=2004
DGENRE=Anime
TTITLE0=VOYAGER
TTITLE1=VOYAGER (インストメンタル)
TTITLE2=VOYAGER (カラオケ)
EXTD=YEAR: 2004
EXTT0=
EXTT1=
EXTT2=
PLAYORDER=
